HIERARCHY
ROOT mixamorig:Hips
{
	OFFSET -0.000008 104.274872 1.554316
	CHANNELS 6 Xposition Yposition Zposition Xrotation Yrotation Zrotation
	JOINT mixamorig:Spine
	{
		OFFSET -0.000005 10.181595 0.131519
		CHANNELS 6 Xposition Yposition Zposition Xrotation Yrotation Zrotation
		JOINT mixamorig:Spine1
		{
			OFFSET -0.000000 9.893959 -1.470707
			CHANNELS 6 Xposition Yposition Zposition Xrotation Yrotation Zrotation
			JOINT mixamorig:Spine2
			{
				OFFSET -0.000000 9.220757 -1.370641
				CHANNELS 6 Xposition Yposition Zposition Xrotation Yrotation Zrotation
				JOINT mixamorig:Neck
				{
					OFFSET 0.000001 16.740417 -2.049036
					CHANNELS 6 Xposition Yposition Zposition Xrotation Yrotation Zrotation
					JOINT mixamorig:Head
					{
						OFFSET 0.000000 9.617874 1.685006
						CHANNELS 6 Xposition Yposition Zposition Xrotation Yrotation Zrotation
						JOINT mixamorig:HeadTop_End
						{
							OFFSET 0.000002 22.037354 7.501101
							CHANNELS 6 Xposition Yposition Zposition Xrotation Yrotation Zrotation
							End Site
							{
								OFFSET 0.000168 2310.654297 -282.823242
							}
						}
					}
				}
				JOINT mixamorig:RightShoulder
				{
					OFFSET -4.569970 11.014908 -2.160885
					CHANNELS 6 Xposition Yposition Zposition Xrotation Yrotation Zrotation
					JOINT mixamorig:RightArm
					{
						OFFSET -10.592851 -0.524811 -2.232101
						CHANNELS 6 Xposition Yposition Zposition Xrotation Yrotation Zrotation
						JOINT mixamorig:RightForeArm
						{
							OFFSET -27.841511 0.000031 -0.000004
							CHANNELS 6 Xposition Yposition Zposition Xrotation Yrotation Zrotation
							JOINT mixamorig:RightHand
							{
								OFFSET -28.328831 -0.000015 0.000015
								CHANNELS 6 Xposition Yposition Zposition Xrotation Yrotation Zrotation
								JOINT mixamorig:RightHandThumb1
								{
									OFFSET -2.464806 -1.573990 2.681852
									CHANNELS 6 Xposition Yposition Zposition Xrotation Yrotation Zrotation
									JOINT mixamorig:RightHandThumb2
									{
										OFFSET -3.215179 -1.872803 1.924282
										CHANNELS 6 Xposition Yposition Zposition Xrotation Yrotation Zrotation
										JOINT mixamorig:RightHandThumb3
										{
											OFFSET -2.654831 -1.527969 1.512609
											CHANNELS 6 Xposition Yposition Zposition Xrotation Yrotation Zrotation
											JOINT mixamorig:RightHandThumb4
											{
												OFFSET -2.018814 -1.152008 1.108052
												CHANNELS 6 Xposition Yposition Zposition Xrotation Yrotation Zrotation
												End Site
												{
													OFFSET -188.809540 -114.533607 132.431396
												}
											}
										}
									}
								}
								JOINT mixamorig:RightHandIndex1
								{
									OFFSET -9.108284 -0.517868 2.259835
									CHANNELS 6 Xposition Yposition Zposition Xrotation Yrotation Zrotation
									JOINT mixamorig:RightHandIndex2
									{
										OFFSET -3.699989 0.000000 0.001215
										CHANNELS 6 Xposition Yposition Zposition Xrotation Yrotation Zrotation
										JOINT mixamorig:RightHandIndex3
										{
											OFFSET -2.850006 0.000031 -0.000522
											CHANNELS 6 Xposition Yposition Zposition Xrotation Yrotation Zrotation
											JOINT mixamorig:RightHandIndex4
											{
												OFFSET -2.772186 -0.000015 -0.000020
												CHANNELS 6 Xposition Yposition Zposition Xrotation Yrotation Zrotation
												End Site
												{
													OFFSET -277.218445 0.000000 -0.050231
												}
											}
										}
									}
								}
								JOINT mixamorig:RightHandMiddle1
								{
									OFFSET -9.532516 -0.000031 -0.000023
									CHANNELS 6 Xposition Yposition Zposition Xrotation Yrotation Zrotation
									JOINT mixamorig:RightHandMiddle2
									{
										OFFSET -3.700005 -0.000015 0.003713
										CHANNELS 6 Xposition Yposition Zposition Xrotation Yrotation Zrotation
										JOINT mixamorig:RightHandMiddle3
										{
											OFFSET -2.949974 0.000015 -0.002054
											CHANNELS 6 Xposition Yposition Zposition Xrotation Yrotation Zrotation
											JOINT mixamorig:RightHandMiddle4
											{
												OFFSET -2.946640 0.000000 -0.000156
												CHANNELS 6 Xposition Yposition Zposition Xrotation Yrotation Zrotation
												End Site
												{
													OFFSET -294.664337 0.000000 -0.113670
												}
											}
										}
									}
								}
								JOINT mixamorig:RightHandRing1
								{
									OFFSET -9.103600 -0.043076 -1.865134
									CHANNELS 6 Xposition Yposition Zposition Xrotation Yrotation Zrotation
									JOINT mixamorig:RightHandRing2
									{
										OFFSET -3.379288 0.000000 -0.001055
										CHANNELS 6 Xposition Yposition Zposition Xrotation Yrotation Zrotation
										JOINT mixamorig:RightHandRing3
										{
											OFFSET -2.889687 -0.000015 0.000379
											CHANNELS 6 Xposition Yposition Zposition Xrotation Yrotation Zrotation
											JOINT mixamorig:RightHandRing4
											{
												OFFSET -2.638809 -0.000015 0.000941
												CHANNELS 6 Xposition Yposition Zposition Xrotation Yrotation Zrotation
												End Site
												{
													OFFSET -263.880371 0.000000 0.516020
												}
											}
										}
									}
								}
								JOINT mixamorig:RightHandPinky1
								{
									OFFSET -8.076683 -0.486710 -3.806280
									CHANNELS 6 Xposition Yposition Zposition Xrotation Yrotation Zrotation
									JOINT mixamorig:RightHandPinky2
									{
										OFFSET -3.600014 -0.000015 -0.003747
										CHANNELS 6 Xposition Yposition Zposition Xrotation Yrotation Zrotation
										JOINT mixamorig:RightHandPinky3
										{
											OFFSET -2.099983 0.000000 -0.005739
											CHANNELS 6 Xposition Yposition Zposition Xrotation Yrotation Zrotation
											JOINT mixamorig:RightHandPinky4
											{
												OFFSET -2.115768 -0.000031 -0.003680
												CHANNELS 6 Xposition Yposition Zposition Xrotation Yrotation Zrotation
												End Site
												{
													OFFSET -211.577087 0.000000 -0.350686
												}
											}
										}
									}
								}
							}
						}
					}
				}
				JOINT mixamorig:LeftShoulder
				{
					OFFSET 4.570447 11.014725 -2.160855
					CHANNELS 6 Xposition Yposition Zposition Xrotation Yrotation Zrotation
					JOINT mixamorig:LeftArm
					{
						OFFSET 10.592371 -0.524597 -2.232119
						CHANNELS 6 Xposition Yposition Zposition Xrotation Yrotation Zrotation
						JOINT mixamorig:LeftForeArm
						{
							OFFSET 27.841532 -0.000031 0.000026
							CHANNELS 6 Xposition Yposition Zposition Xrotation Yrotation Zrotation
							JOINT mixamorig:LeftHand
							{
								OFFSET 28.328846 -0.000061 0.000022
								CHANNELS 6 Xposition Yposition Zposition Xrotation Yrotation Zrotation
								JOINT mixamorig:LeftHandThumb1
								{
									OFFSET 2.466141 -1.576172 2.681732
									CHANNELS 6 Xposition Yposition Zposition Xrotation Yrotation Zrotation
									JOINT mixamorig:LeftHandThumb2
									{
										OFFSET 3.217812 -1.872070 1.916482
										CHANNELS 6 Xposition Yposition Zposition Xrotation Yrotation Zrotation
										JOINT mixamorig:LeftHandThumb3
										{
											OFFSET 2.656029 -1.528778 1.514513
											CHANNELS 6 Xposition Yposition Zposition Xrotation Yrotation Zrotation
											JOINT mixamorig:LeftHandThumb4
											{
												OFFSET 2.020889 -1.154053 1.115139
												CHANNELS 6 Xposition Yposition Zposition Xrotation Yrotation Zrotation
												End Site
												{
													OFFSET 190.885437 -115.081749 130.048782
												}
											}
										}
									}
								}
								JOINT mixamorig:LeftHandIndex1
								{
									OFFSET 9.109314 -0.518021 2.259871
									CHANNELS 6 Xposition Yposition Zposition Xrotation Yrotation Zrotation
									JOINT mixamorig:LeftHandIndex2
									{
										OFFSET 3.699989 0.000000 -0.000322
										CHANNELS 6 Xposition Yposition Zposition Xrotation Yrotation Zrotation
										JOINT mixamorig:LeftHandIndex3
										{
											OFFSET 2.850006 0.000000 0.000352
											CHANNELS 6 Xposition Yposition Zposition Xrotation Yrotation Zrotation
											JOINT mixamorig:LeftHandIndex4
											{
												OFFSET 2.774864 -0.000031 -0.000027
												CHANNELS 6 Xposition Yposition Zposition Xrotation Yrotation Zrotation
												End Site
												{
													OFFSET 277.486267 0.000000 -0.009857
												}
											}
										}
									}
								}
								JOINT mixamorig:LeftHandMiddle1
								{
									OFFSET 9.533394 0.000061 0.000044
									CHANNELS 6 Xposition Yposition Zposition Xrotation Yrotation Zrotation
									JOINT mixamorig:LeftHandMiddle2
									{
										OFFSET 3.699989 -0.000015 -0.000231
										CHANNELS 6 Xposition Yposition Zposition Xrotation Yrotation Zrotation
										JOINT mixamorig:LeftHandMiddle3
										{
											OFFSET 2.949997 -0.000015 -0.000059
											CHANNELS 6 Xposition Yposition Zposition Xrotation Yrotation Zrotation
											JOINT mixamorig:LeftHandMiddle4
											{
												OFFSET 2.952896 0.000031 0.000063
												CHANNELS 6 Xposition Yposition Zposition Xrotation Yrotation Zrotation
												End Site
												{
													OFFSET 295.289337 0.000000 0.022810
												}
											}
										}
									}
								}
								JOINT mixamorig:LeftHandRing1
								{
									OFFSET 9.104523 -0.042999 -1.865074
									CHANNELS 6 Xposition Yposition Zposition Xrotation Yrotation Zrotation
									JOINT mixamorig:LeftHandRing2
									{
										OFFSET 3.150009 -0.000031 0.000043
										CHANNELS 6 Xposition Yposition Zposition Xrotation Yrotation Zrotation
										JOINT mixamorig:LeftHandRing3
										{
											OFFSET 2.949982 -0.000015 0.000040
											CHANNELS 6 Xposition Yposition Zposition Xrotation Yrotation Zrotation
											JOINT mixamorig:LeftHandRing4
											{
												OFFSET 2.644348 0.000000 0.000057
												CHANNELS 6 Xposition Yposition Zposition Xrotation Yrotation Zrotation
												End Site
												{
													OFFSET 264.434631 0.000000 0.012105
												}
											}
										}
									}
								}
								JOINT mixamorig:LeftHandPinky1
								{
									OFFSET 8.077789 -0.486847 -3.806259
									CHANNELS 6 Xposition Yposition Zposition Xrotation Yrotation Zrotation
									JOINT mixamorig:LeftHandPinky2
									{
										OFFSET 3.599953 0.000031 0.014727
										CHANNELS 6 Xposition Yposition Zposition Xrotation Yrotation Zrotation
										JOINT mixamorig:LeftHandPinky3
										{
											OFFSET 2.100021 0.000015 0.007705
											CHANNELS 6 Xposition Yposition Zposition Xrotation Yrotation Zrotation
											JOINT mixamorig:LeftHandPinky4
											{
												OFFSET 2.125504 0.000031 0.007517
												CHANNELS 6 Xposition Yposition Zposition Xrotation Yrotation Zrotation
												End Site
												{
													OFFSET 212.550781 0.000000 0.625752
												}
											}
										}
									}
								}
							}
						}
					}
				}
			}
		}
	}
	JOINT mixamorig:RightUpLeg
	{
		OFFSET -8.207787 -6.751648 -1.599560
		CHANNELS 6 Xposition Yposition Zposition Xrotation Yrotation Zrotation
		JOINT mixamorig:RightLeg
		{
			OFFSET -0.000002 -44.370117 0.345942
			CHANNELS 6 Xposition Yposition Zposition Xrotation Yrotation Zrotation
			JOINT mixamorig:RightFoot
			{
				OFFSET 0.000003 -44.423679 -3.043532
				CHANNELS 6 Xposition Yposition Zposition Xrotation Yrotation Zrotation
				JOINT mixamorig:RightToeBase
				{
					OFFSET -0.000002 -8.728671 10.710558
					CHANNELS 6 Xposition Yposition Zposition Xrotation Yrotation Zrotation
					JOINT mixamorig:RightToe_End
					{
						OFFSET -0.000001 -0.000679 9.278119
						CHANNELS 6 Xposition Yposition Zposition Xrotation Yrotation Zrotation
						End Site
						{
							OFFSET 0.000000 -0.067690 927.812134
						}
					}
				}
			}
		}
	}
	JOINT mixamorig:LeftUpLeg
	{
		OFFSET 8.207793 -6.751686 -1.599556
		CHANNELS 6 Xposition Yposition Zposition Xrotation Yrotation Zrotation
		JOINT mixamorig:LeftLeg
		{
			OFFSET -0.000004 -44.370014 0.346954
			CHANNELS 6 Xposition Yposition Zposition Xrotation Yrotation Zrotation
			JOINT mixamorig:LeftFoot
			{
				OFFSET -0.000001 -44.423672 -3.044401
				CHANNELS 6 Xposition Yposition Zposition Xrotation Yrotation Zrotation
				JOINT mixamorig:LeftToeBase
				{
					OFFSET -0.000002 -8.728669 10.710558
					CHANNELS 6 Xposition Yposition Zposition Xrotation Yrotation Zrotation
					JOINT mixamorig:LeftToe_End
					{
						OFFSET -0.000003 -0.000679 9.278133
						CHANNELS 6 Xposition Yposition Zposition Xrotation Yrotation Zrotation
						End Site
						{
							OFFSET 0.000000 -0.068021 927.813477
						}
					}
				}
			}
		}
	}
}
MOTION
Frames: 3
Frame Time: 0.033333
0.000006 104.270477 1.554256 0.000010 0.000003 -0.000113 -0.000005 10.181587 0.131522 0.000001 -0.000003 0.000084 -0.000000 9.893967 -1.470711 0.000001 0.000000 -0.000000 -0.000000 9.220802 -1.370642 0.000000 -0.000000 -0.000000 0.000001 16.740433 -2.049030 0.000000 -0.000000 -0.000000 0.000000 9.617859 1.685014 0.000000 0.000000 0.000000 0.000002 22.037384 7.501101 0.000000 -0.000000 0.000000 -4.569968 11.014880 -2.160881 0.000008 0.000001 -0.000038 -10.592872 -0.524776 -2.231896 76.504245 31.624052 -25.172300 -27.841516 0.000014 0.000543 -50.835735 110.452874 68.777095 -28.328819 0.000020 0.000028 -0.000321 -0.000043 0.000006 -2.464425 -1.573753 2.682331 -48.867999 -168.727761 -12.394748 -3.215286 -1.872574 1.924647 154.750913 31.643092 3.928275 -2.654957 -1.527888 1.513085 147.145634 26.805873 -38.044762 -2.018825 -1.151982 1.108072 -0.000006 -0.000001 -0.000002 -9.108383 -0.517561 2.260132 100.169533 17.744288 -21.194762 -3.700065 0.000317 0.001510 98.335681 14.488038 -16.707908 -2.850082 0.000360 -0.000250 98.825768 11.234713 -13.097485 -2.772174 -0.000002 -0.000021 -0.000000 -0.000002 -0.000002 -9.532595 0.000263 0.000259 95.980673 17.897947 -19.993798 -3.700092 0.000329 0.003983 94.087502 12.833276 -13.671911 -2.950057 0.000343 -0.001775 95.738980 11.660036 -12.872922 -2.946620 0.000000 -0.000159 -0.000002 -0.000001 0.000001 -9.103710 -0.042766 -1.864853 93.354185 18.896502 -19.966062 -3.379353 0.000302 -0.000820 91.365842 9.747689 -9.999477 -2.889750 0.000350 0.000655 96.648358 6.615847 -7.480534 -2.638805 0.000016 0.000942 -0.000001 -0.000001 -0.000002 -8.076769 -0.486406 -3.805995 86.828227 19.991836 -18.788160 -3.600045 0.000282 -0.003514 90.404882 9.572012 -9.276950 -2.100020 0.000314 -0.005462 93.396662 5.759257 -5.877479 -2.115778 -0.000056 -0.003682 0.000002 -0.000000 -0.000002 4.570446 11.014691 -2.160851 -0.000018 0.000010 -0.000021 10.592407 -0.524473 -2.232353 74.255904 -15.487642 11.755708 27.841824 0.000061 -0.000202 99.767842 -72.233028 81.785191 28.328831 -0.000029 0.000019 0.000022 -0.000089 0.000000 2.466258 -1.575910 2.681796 -163.361637 -8.353365 45.376608 3.217857 -1.871866 1.916439 163.197753 -19.117870 51.332191 2.656102 -1.528707 1.514496 139.770109 -27.171608 62.764090 2.020902 -1.154083 1.115139 0.000003 0.000003 0.000004 9.109367 -0.517912 2.259753 67.300955 -23.473105 15.738516 3.700047 0.000093 -0.000452 62.737794 -20.374456 12.515797 2.850040 0.000109 0.000231 57.279216 -15.348427 8.416546 2.774881 -0.000042 -0.000026 0.000001 0.000001 -0.000001 9.533444 0.000150 -0.000067 64.247225 -21.686727 13.709424 3.700031 0.000103 -0.000370 66.894709 -16.980777 11.261399 2.950066 0.000103 -0.000185 66.914031 -17.927057 11.903073 2.952857 -0.000015 0.000062 0.000002 0.000003 0.000003 9.104572 -0.042909 -1.865196 63.985772 -19.486899 12.246609 3.150038 0.000132 -0.000088 66.695540 -14.301393 9.440363 2.950005 0.000117 -0.000092 68.246916 -13.777468 9.361903 2.644329 0.000031 0.000057 -0.000000 0.000000 0.000002 8.077835 -0.486761 -3.806383 60.736993 -19.517457 11.881976 3.600003 0.000112 0.014580 61.128103 -15.918060 9.761942 2.100051 0.000119 0.007555 62.533694 -14.249801 8.991077 2.125508 -0.000016 0.007511 0.000003 -0.000000 0.000001 -8.207786 -6.751667 -1.599560 -0.077001 -0.000003 0.000080 -0.000002 -44.370110 0.345938 0.153719 -0.000000 -0.000000 0.000000 -44.423679 -3.043532 -0.076700 0.000000 -0.000002 -0.000006 -8.728667 10.710559 -0.000009 -0.000000 -0.000000 -0.000001 -0.000679 9.278123 0.000000 -0.000000 -0.000000 8.207792 -6.751710 -1.599556 -0.074518 -0.000003 0.000081 -0.000002 -44.370014 0.346960 0.148822 0.000002 0.000000 -0.000001 -44.423664 -3.044403 -0.074314 0.000000 -0.000002 -0.000004 -8.728671 10.710558 0.000007 -0.000000 -0.000000 0.000000 -0.000680 9.278137 -0.000000 0.000000 -0.000001 
0.000006 104.270477 1.554256 0.000010 0.000003 -0.000113 -0.000005 10.181587 0.131522 0.000001 -0.000003 0.000084 -0.000000 9.893967 -1.470711 0.000001 0.000000 -0.000000 -0.000000 9.220802 -1.370642 0.000000 -0.000000 -0.000000 0.000001 16.740433 -2.049030 0.000000 -0.000000 -0.000000 0.000000 9.617859 1.685014 0.000000 0.000000 0.000000 0.000002 22.037384 7.501101 0.000000 -0.000000 0.000000 -4.569968 11.014880 -2.160881 0.000008 0.000001 -0.000038 -10.592865 -0.524781 -2.231873 76.230976 35.673757 -28.335979 -27.841511 -0.000006 0.000545 -49.130637 107.667113 64.037163 -28.328815 0.000009 0.000039 -0.000320 -0.000046 0.000008 -2.464453 -1.573708 2.682286 -53.743398 -174.236664 -28.368547 -3.215280 -1.872564 1.924657 153.014802 31.834340 6.673035 -2.654959 -1.527871 1.513079 147.191820 27.197067 -33.899014 -2.018834 -1.151996 1.108050 -0.000004 -0.000001 0.000002 -9.108381 -0.517558 2.260137 99.760418 16.329054 -19.379863 -3.700069 0.000323 0.001518 96.816142 13.805201 -15.506831 -2.850093 0.000361 -0.000270 95.489842 11.199694 -12.318411 -2.772163 -0.000016 -0.000021 -0.000002 0.000000 -0.000000 -9.532582 0.000269 0.000247 93.659987 16.173958 -17.377693 -3.700064 0.000325 0.003971 94.663027 11.980276 -12.886464 -2.950056 0.000331 -0.001814 95.878009 11.670534 -12.915697 -2.946629 -0.000015 -0.000152 -0.000000 -0.000001 -0.000001 -9.103712 -0.042773 -1.864866 90.589776 18.509384 -18.651886 -3.379329 0.000321 -0.000809 92.173280 8.537054 -8.883643 -2.889761 0.000344 0.000666 97.791493 6.294893 -7.264338 -2.638815 -0.000018 0.000940 -0.000000 0.000001 0.000002 -8.076765 -0.486395 -3.806009 85.799655 21.164291 -19.551821 -3.600038 0.000274 -0.003515 87.528717 8.539733 -7.839736 -2.099993 0.000328 -0.005491 89.564988 4.034209 -3.791079 -2.115784 -0.000029 -0.003680 -0.000000 -0.000002 -0.000009 4.570446 11.014691 -2.160851 -0.000018 0.000010 -0.000021 10.592397 -0.524479 -2.232368 74.013009 -11.645785 8.790961 27.841824 0.000062 -0.000201 101.174424 -71.611419 82.554495 28.328833 -0.000029 0.000024 0.000022 -0.000089 -0.000000 2.466227 -1.575875 2.681772 -162.150194 -15.965099 33.725726 3.217869 -1.871928 1.916460 165.167648 -15.204981 61.309663 2.656097 -1.528726 1.514514 140.220956 -26.578991 70.650855 2.020906 -1.154060 1.115142 0.000002 0.000001 0.000002 9.109380 -0.517941 2.259759 65.029541 -25.821032 16.616795 3.700033 0.000077 -0.000447 62.393860 -18.074176 11.013800 2.850049 0.000110 0.000215 60.586585 -13.967982 8.185928 2.774887 -0.000027 -0.000027 -0.000002 0.000002 0.000000 9.533456 0.000126 -0.000070 62.435647 -23.237507 14.199987 3.700031 0.000100 -0.000358 64.135913 -15.200449 9.555617 2.950019 0.000100 -0.000186 63.025099 -14.345216 8.825737 2.952875 -0.000011 0.000058 -0.000000 0.000000 -0.000001 9.104586 -0.042920 -1.865204 64.228278 -21.780082 13.771812 3.150040 0.000113 -0.000092 65.664605 -14.458506 9.359620 2.950016 0.000120 -0.000077 66.277622 -11.723629 7.670370 2.644320 0.000044 0.000053 -0.000000 -0.000003 -0.000001 8.077844 -0.486783 -3.806391 60.205754 -22.387226 13.470818 3.599983 0.000116 0.014596 58.054709 -17.601010 10.132695 2.100031 0.000116 0.007567 62.075177 -13.617840 8.524320 2.125492 -0.000017 0.007511 0.000003 -0.000001 -0.000001 -8.207786 -6.751667 -1.599560 -0.077001 -0.000003 0.000080 -0.000002 -44.370110 0.345938 0.153719 -0.000000 -0.000000 0.000000 -44.423679 -3.043532 -0.076700 0.000000 -0.000002 -0.000006 -8.728667 10.710559 -0.000009 -0.000000 -0.000000 -0.000001 -0.000679 9.278123 0.000000 -0.000000 -0.000000 8.207792 -6.751710 -1.599556 -0.074518 -0.000003 0.000081 -0.000002 -44.370014 0.346960 0.148822 0.000002 0.000000 -0.000001 -44.423664 -3.044403 -0.074314 0.000000 -0.000002 -0.000004 -8.728671 10.710558 0.000007 -0.000000 -0.000000 0.000000 -0.000680 9.278137 -0.000000 0.000000 -0.000001 
0.000006 104.270477 1.554256 0.000010 0.000003 -0.000113 -0.000005 10.181587 0.131522 0.000001 -0.000003 0.000084 -0.000000 9.893967 -1.470711 0.000001 0.000000 -0.000000 -0.000000 9.220802 -1.370642 0.000000 -0.000000 -0.000000 0.000001 16.740433 -2.049030 0.000000 -0.000000 -0.000000 0.000000 9.617859 1.685014 0.000000 0.000000 0.000000 0.000002 22.037384 7.501101 0.000000 -0.000000 0.000000 -4.569968 11.014880 -2.160881 0.000008 0.000001 -0.000038 -10.592859 -0.524800 -2.231861 76.155339 39.187182 -31.165754 -27.841528 0.000014 0.000553 -48.324111 104.945618 60.576743 -28.328821 0.000010 0.000040 -0.000325 -0.000048 0.000007 -2.464456 -1.573693 2.682294 -53.878889 -174.101850 -28.756585 -3.215277 -1.872551 1.924649 152.173650 32.122264 9.521047 -2.654966 -1.527879 1.513061 146.931070 27.262765 -33.676787 -2.018822 -1.152000 1.108064 -0.000001 -0.000003 0.000000 -9.108368 -0.517561 2.260129 98.995382 16.125238 -18.887205 -3.700078 0.000324 0.001526 96.206049 13.691811 -15.217588 -2.850087 0.000367 -0.000280 94.974484 11.245947 -12.258838 -2.772154 -0.000001 -0.000022 0.000001 -0.000001 -0.000001 -9.532595 0.000272 0.000237 92.886283 16.109373 -17.079815 -3.700068 0.000328 0.003979 94.613228 12.209092 -13.122611 -2.950053 0.000339 -0.001778 96.107052 11.987096 -13.318595 -2.946632 0.000001 -0.000159 0.000000 0.000001 -0.000000 -9.103697 -0.042770 -1.864870 89.993090 18.752622 -18.705110 -3.379356 0.000322 -0.000818 92.280746 8.695249 -9.064839 -2.889750 0.000348 0.000647 97.947303 6.438194 -7.448897 -2.638800 -0.000003 0.000939 -0.000001 0.000004 -0.000001 -8.076761 -0.486402 -3.806019 85.179316 21.616529 -19.762024 -3.600057 0.000277 -0.003528 87.292577 8.481523 -7.752252 -2.100004 0.000324 -0.005519 89.161993 3.942382 -3.674319 -2.115774 -0.000053 -0.003681 0.000000 -0.000001 -0.000004 4.570446 11.014691 -2.160851 -0.000018 0.000010 -0.000021 10.592443 -0.524465 -2.232388 73.762539 -27.217372 20.589988 27.841827 0.000041 -0.000198 102.544198 -75.755957 88.252949 28.328814 -0.000029 0.000023 0.000020 -0.000089 0.000001 2.466258 -1.575879 2.681785 -163.058868 -11.408567 40.862044 3.217885 -1.871901 1.916440 165.269268 -17.449515 54.286231 2.656089 -1.528694 1.514531 138.947932 -27.275006 69.117075 2.020883 -1.154065 1.115140 0.000002 0.000005 0.000006 9.109397 -0.517942 2.259759 64.902725 -25.099009 16.104080 3.700056 0.000088 -0.000451 62.608519 -17.293175 10.577902 2.850042 0.000117 0.000214 60.896519 -13.563533 7.996675 2.774888 -0.000029 -0.000025 0.000003 0.000000 -0.000000 9.533467 0.000122 -0.000067 62.710514 -23.191265 14.247244 3.700057 0.000099 -0.000370 64.917731 -15.290832 9.758558 2.950039 0.000101 -0.000195 64.309967 -14.443149 9.110593 2.952864 -0.000031 0.000065 0.000000 0.000001 0.000001 9.104603 -0.042927 -1.865196 64.089318 -22.044634 13.904421 3.150033 0.000107 -0.000089 65.037860 -14.875297 9.516451 2.950003 0.000115 -0.000078 65.682466 -11.926958 7.715962 2.644325 0.000018 0.000060 0.000001 -0.000001 -0.000000 8.077850 -0.486782 -3.806379 60.335931 -22.632564 13.652942 3.599990 0.000097 0.014595 57.632228 -18.107156 10.330852 2.100014 0.000116 0.007552 61.178278 -13.930332 8.562824 2.125518 0.000000 0.007520 -0.000002 -0.000004 0.000001 -8.207786 -6.751667 -1.599560 -0.077001 -0.000003 0.000080 -0.000002 -44.370110 0.345938 0.153719 -0.000000 -0.000000 0.000000 -44.423679 -3.043532 -0.076700 0.000000 -0.000002 -0.000006 -8.728667 10.710559 -0.000009 -0.000000 -0.000000 -0.000001 -0.000679 9.278123 0.000000 -0.000000 -0.000000 8.207792 -6.751710 -1.599556 -0.074518 -0.000003 0.000081 -0.000002 -44.370014 0.346960 0.148822 0.000002 0.000000 -0.000001 -44.423664 -3.044403 -0.074314 0.000000 -0.000002 -0.000004 -8.728671 10.710558 0.000007 -0.000000 -0.000000 0.000000 -0.000680 9.278137 -0.000000 0.000000 -0.000001 
